M48
; DRILL file {KiCad 9.0.6} date 2026-05-12T21:02:19+0200
; FORMAT={-:-/ absolute / metric / decimal}
; #@! TF.CreationDate,2026-05-12T21:02:19+02:00
; #@! TF.GenerationSoftware,Kicad,Pcbnew,9.0.6
; #@! TF.FileFunction,Plated,1,2,PTH
FMAT,2
METRIC
; #@! TA.AperFunction,Plated,PTH,ViaDrill
T1C0.300
; #@! TA.AperFunction,Plated,PTH,ComponentDrill
T2C0.750
; #@! TA.AperFunction,Plated,PTH,ComponentDrill
T3C0.800
; #@! TA.AperFunction,Plated,PTH,ComponentDrill
T4C0.900
; #@! TA.AperFunction,Plated,PTH,ComponentDrill
T5C1.000
; #@! TA.AperFunction,Plated,PTH,ComponentDrill
T6C1.170
; #@! TA.AperFunction,Plated,PTH,ComponentDrill
T7C1.300
%
G90
G05
T1
X105.8Y-104.6
T2
X82.18Y-148.29
X82.2Y-59.5
X82.2Y-80.0
X82.21Y-124.9
X82.23Y-101.54
X82.26Y-37.8
X83.45Y-148.29
X83.47Y-59.5
X83.47Y-80.0
X83.48Y-124.9
X83.5Y-101.54
X83.53Y-37.8
X84.72Y-148.29
X84.74Y-59.5
X84.74Y-80.0
X84.75Y-124.9
X84.77Y-101.54
X84.8Y-37.8
T3
X71.03Y-37.3
X71.03Y-41.7
X71.03Y-45.5
X71.08Y-59.0
X71.08Y-63.4
X71.08Y-67.4
X71.08Y-79.5
X71.08Y-83.7
X71.08Y-87.9
X71.09Y-101.0
X71.09Y-105.35
X71.13Y-109.65
X71.13Y-132.9
X71.13Y-147.75
X71.14Y-124.4
X71.14Y-128.65
X71.155Y-151.9
X71.155Y-156.1
X78.65Y-37.3
X78.65Y-41.7
X78.65Y-45.5
X78.7Y-59.0
X78.7Y-63.4
X78.7Y-67.4
X78.7Y-79.5
X78.7Y-83.7
X78.7Y-87.9
X78.71Y-101.0
X78.71Y-105.35
X78.75Y-109.65
X78.75Y-132.9
X78.75Y-147.75
X78.76Y-124.4
X78.76Y-128.65
X78.775Y-151.9
X78.775Y-156.1
T4
X82.5Y-66.4
X82.5Y-108.7
X82.5Y-131.9
X82.5Y-155.125
X82.53Y-87.0
X82.56Y-44.6
X85.04Y-66.4
X85.04Y-108.7
X85.04Y-131.9
X85.04Y-155.125
X85.07Y-87.0
X85.1Y-44.6
T5
X38.8Y-125.66
X38.8Y-128.2
X38.8Y-130.74
X38.8Y-148.66
X38.8Y-151.2
X38.8Y-153.74
X38.95Y-39.07
X38.95Y-41.61
X38.95Y-44.15
X39.0Y-61.22
X39.0Y-63.76
X39.0Y-66.3
X39.0Y-80.71
X39.0Y-83.25
X39.0Y-85.79
X39.0Y-102.71
X39.0Y-105.25
X39.0Y-107.79
X60.65Y-35.9
X60.65Y-47.9
X60.7Y-57.6
X60.7Y-69.6
X60.7Y-77.65
X60.7Y-89.65
X60.7Y-100.0
X60.7Y-112.0
X60.75Y-123.15
X60.75Y-135.15
X60.8Y-145.8
X60.8Y-157.8
X91.72Y-110.0
X91.72Y-127.78
X94.26Y-110.0
X94.26Y-127.78
X96.8Y-110.0
X96.8Y-127.78
X99.34Y-110.0
X99.34Y-127.78
X101.88Y-110.0
X101.88Y-127.78
X104.42Y-110.0
X104.42Y-127.78
X106.96Y-110.0
X106.96Y-127.78
X109.5Y-110.0
X109.5Y-127.78
X112.04Y-110.0
X112.04Y-127.78
X114.58Y-110.0
X114.58Y-127.78
X117.12Y-110.0
X117.12Y-127.78
X119.66Y-110.0
X119.66Y-127.78
X122.2Y-110.0
X122.2Y-127.78
X124.74Y-110.0
X124.74Y-127.78
X126.6Y-134.8
X127.28Y-110.0
X127.28Y-127.78
X129.14Y-134.8
X129.82Y-110.0
X129.82Y-127.78
X131.68Y-134.8
X132.15Y-76.76
X132.15Y-79.3
X132.15Y-81.84
X132.15Y-84.38
X132.15Y-86.92
X132.15Y-89.46
X132.15Y-92.0
X132.15Y-94.54
X132.36Y-110.0
X132.36Y-127.78
X134.9Y-110.0
X134.9Y-127.78
X137.44Y-110.0
X137.44Y-127.78
X139.98Y-110.0
X139.98Y-127.78
T6
X97.7Y-30.0
X97.7Y-35.0
X116.5Y-30.0
X116.5Y-35.0
T7
X27.08Y-103.42
X27.08Y-108.42
X27.232Y-43.55
X27.232Y-48.55
X27.232Y-126.35
X27.232Y-131.35
X27.232Y-143.15
X27.232Y-148.15
X27.5Y-61.55
X27.5Y-66.55
X27.5Y-81.25
X27.5Y-86.25
X48.4Y-47.95
X48.45Y-35.9
X48.45Y-69.65
X48.45Y-89.7
X48.45Y-112.05
X48.5Y-57.6
X48.5Y-77.65
X48.5Y-100.0
X48.5Y-135.2
X48.55Y-123.15
X48.55Y-157.85
X48.6Y-145.8
X62.6Y-41.95
X62.65Y-63.65
X62.65Y-83.7
X62.65Y-106.05
X62.7Y-129.2
X62.75Y-151.85
X138.2Y-144.2
X138.2Y-149.2
X138.968Y-53.05
X138.968Y-58.05
T5
G00X131.0Y-44.3
M15
G01X131.0Y-42.3
M16
G05
G00X137.0Y-43.95
M15
G01X137.0Y-42.65
M16
G05
G00X137.25Y-38.8
M15
G01X138.75Y-38.8
M16
G05
G00X137.25Y-47.8
M15
G01X138.75Y-47.8
M16
G05
M30
